<svg width="256" height="256" xmlns="http://www.w3.org/2000/svg"><path d="M38.81 0H217.2A38.73 38.73 0 01256 38.81V217.2a38.73 38.73 0 01-38.81 38.8H38.8A38.73 38.73 0 010 217.19V38.8A38.73 38.73 0 0138.81 0z" fill="#0b409c"/><g fill="#fff" opacity=".3"><path d="M12.25 10.47a38.73 38.73 0 00-1.79 1.78l233.29 233.28a38.73 38.73 0 001.8-1.79z"/><path d="M243.75 10.47L10.46 243.75a38.73 38.73 0 001.8 1.79L245.52 12.25a38.73 38.73 0 00-1.78-1.78z"/><path d="M173.47 0v256H176V0zM126.74 0v256h2.52V0zM80 0v256h2.53V0z"/><path d="M0 173.47V176h256v-2.53zM0 126.74v2.52h256v-2.52zM0 80v2.53h256V80z"/></g><path d="M196.58 46.55v1.61c-1.32 0-2.62.13-3.93.42h0c-13.35 3.03-19.69 16.64-13.5 29.36h0c2.85 5.81 4.16 12.05 4.28 19.11v.18l-.01.19c-.07.73-.18 2.32-.36 3.95v0c-2.48 22.44-21.73 37.94-42.56 36.68h0c-14.44-.9-25.82-8.38-33.14-20.9-4.76-8.14-9.28-16.38-13.87-24.52-6.4-11.35-12.71-22.73-19.15-34v0c-4.22-7.4-9.86-10.82-17.96-10.4-15.16.8-23.5 16.82-15.87 30.5h0c8.7 15.53 17.47 31.05 26.2 46.6v0c14.37 25.53 28.67 51.1 43.12 76.56h0c4.25 7.48 10.07 10.66 18.4 10.04h0c7.32-.54 12.24-4.16 16.07-10.97h0C167.12 160.27 190 119.66 212.86 79l.01-.03.01-.02a21.6 21.6 0 002.72-13.7h0v-.02c-1.23-9.6-9.95-16.99-19.01-16.94z" fill="#fff" fill-opacity=".4" stroke="#fff" stroke-width="7"/></svg>
