<?xml version="1.0" encoding="UTF-8" standalone="no"?>
<svg
   width="256"
   height="256"
   version="1.1"
   id="svg20"
   sodipodi:docname="logo-big.svg"
   inkscape:version="1.1 (ce6663b3b7, 2021-05-25)"
   inkscape:export-filename="/home/home/logo-big.png"
   inkscape:export-xdpi="96"
   inkscape:export-ydpi="96"
   xmlns:inkscape="http://www.inkscape.org/namespaces/inkscape"
   xmlns:sodipodi="http://sodipodi.sourceforge.net/DTD/sodipodi-0.dtd"
   xmlns="http://www.w3.org/2000/svg"
   xmlns:svg="http://www.w3.org/2000/svg">
  <defs
     id="defs17" />
  <sodipodi:namedview
     id="namedview15"
     pagecolor="#ffffff"
     bordercolor="#ffffff"
     borderopacity="0"
     inkscape:pageshadow="2"
     inkscape:pageopacity="0.0"
     inkscape:pagecheckerboard="0"
     showgrid="false"
     inkscape:lockguides="true"
     inkscape:zoom="1.5357475"
     inkscape:cx="102.55592"
     inkscape:cy="115.90447"
     inkscape:window-width="1360"
     inkscape:window-height="768"
     inkscape:window-x="4"
     inkscape:window-y="23"
     inkscape:window-maximized="0"
     inkscape:current-layer="grid" />
  <path
     id="background"
     d="M38.81 0H217.2A38.73 38.73 0 01256 38.81V217.2a38.73 38.73 0 01-38.81 38.8H38.8A38.73 38.73 0 010 217.19V38.8A38.73 38.73 0 0138.81 0z"
     fill="#2879ff" />
  <g
     id="grid"
     fill="#fff"
     opacity=".3"
     fill-opacity="1"
     inkscape:export-filename="/home/home/logo.png"
     inkscape:export-xdpi="96"
     inkscape:export-ydpi="96">
    <path
       id="diagLine-1"
       d="M12.25 10.47a38.73 38.73 0 00-1.79 1.78l233.29 233.28a38.73 38.73 0 001.8-1.79z" />
    <path
       id="diagLine-2"
       d="M243.75 10.47L10.46 243.75a38.73 38.73 0 001.8 1.79L245.52 12.25a38.73 38.73 0 00-1.78-1.78z" />
    <path
       id="vertLine-1"
       d="M173.47 0v256H176V0z" />
    <path
       id="vertLine-2"
       d="M126.74 0v256h2.52V0z" />
    <path
       id="vertLine-3"
       d="M80 0v256h2.53V0z" />
    <path
       id="horizline-1"
       d="M0 173.47V176h256v-2.53z" />
    <path
       id="horizline-2"
       d="M0 126.74v2.52h256v-2.52z" />
    <path
       id="horizline-3"
       d="M0 80v2.53h256V80z" />
  </g>
  <path
     id="outlineLogo"
     d="M196.58 44.66c-1.56 0-3.13.16-4.7.51-15.4 3.49-22.95 19.78-15.87 34.31 2.6 5.31 3.81 10.95 3.92 17.63-.07.8-.18 2.33-.35 3.88-2.28 20.66-19.89 34.72-38.87 33.57-13.4-.83-23.47-7.45-30.33-19.18-4.73-8.08-9.24-16.31-13.84-24.47-6.4-11.34-12.71-22.72-19.16-34.02-4.71-8.26-11.89-12.64-21.18-12.16-17.61.93-27.51 20-18.74 35.7 8.7 15.55 17.47 31.07 26.2 46.61 14.37 25.53 28.67 51.11 43.13 76.58 4.78 8.41 12.23 12.5 21.7 11.8 8.45-.62 14.62-5.2 18.86-12.75 22.82-40.68 45.71-81.3 68.56-121.95a25.1 25.1 0 003.16-15.92c-1.46-11.4-11.58-20.06-22.5-20.14zm-.02 7.14c7.27.13 14.45 6.13 15.44 13.88.54 4.32-.18 7.81-2.28 11.54a7.12 7.12 0 000 .03c-22.85 40.64-45.74 81.27-68.57 121.95-3.4 6.04-7.03 8.66-13.2 9.12-7.17.53-11.26-1.7-14.96-8.2-14.45-25.44-28.76-51.02-43.13-76.55-8.74-15.55-17.5-31.08-26.2-46.63-6.45-11.55.27-24.42 12.9-25.08 6.89-.36 10.92 2.06 14.63 8.56C77.62 71.7 83.95 83.04 90.35 94.4c4.57 8.1 9.08 16.37 13.88 24.58 7.8 13.35 20.52 21.74 36.03 22.7 22.74 1.37 43.7-15.63 46.38-39.9.19-1.71.33-3.35.39-4.04a7.12 7.12 0 00.03-.75c-.13-7.45-1.55-14.32-4.65-20.63-5.29-10.87-.2-21.7 11.04-24.25 1.03-.23 2.07-.33 3.1-.31z"
     fill="#fff"
     stroke-width="10" />
  <path
     id="filledLogo"
     d="M196.58 44.66c-1.56 0-3.13.16-4.7.51-15.4 3.49-22.95 19.78-15.87 34.31 2.6 5.31 3.81 10.95 3.92 17.63-.07.8-.18 2.33-.35 3.88-2.28 20.66-19.89 34.72-38.87 33.57-13.4-.83-23.47-7.45-30.33-19.18-4.73-8.08-9.24-16.31-13.84-24.47-6.4-11.34-12.71-22.72-19.16-34.02-4.71-8.26-11.89-12.64-21.18-12.16-17.61.93-27.51 20-18.74 35.7 8.7 15.55 17.47 31.07 26.2 46.61 14.37 25.53 28.67 51.11 43.13 76.58 4.78 8.41 12.23 12.5 21.7 11.8 8.45-.62 14.62-5.2 18.86-12.75 22.82-40.68 45.71-81.3 68.56-121.95a25.1 25.1 0 003.16-15.92c-1.46-11.4-11.58-20.06-22.5-20"
     fill="#fff"
     fill-opacity="0.3" />
</svg>
